<svg xmlns="http://www.w3.org/2000/svg" xmlns:xlink="http://www.w3.org/1999/xlink" fill="none" version="1.1" width="54" height="53.81919860839844" viewBox="0 0 54 53.81919860839844"><defs><clipPath id="master_svg0_9_57"><rect x="6" y="4.9832587242126465" width="42" height="41.859375" rx="0"/></clipPath></defs><g style="mix-blend-mode:passthrough"><g style="mix-blend-mode:passthrough"><rect x="0" y="0" width="54" height="53.81919479370117" rx="15" fill="#4477F1" fill-opacity="1"/></g><g style="mix-blend-mode:passthrough" clip-path="url(#master_svg0_9_57)"><g style="mix-blend-mode:passthrough"><path d="M9.5,15.448101849212646C9.5,14.484839849212646,10.283501,13.703961849212646,11.25,13.703961849212646C11.25,13.703961849212646,42.75,13.703961849212646,42.75,13.703961849212646C43.7165,13.703961849212646,44.5,14.484839849212646,44.5,15.448101849212646C44.5,16.411351849212647,43.7165,17.192241849212646,42.75,17.192241849212646C42.75,17.192241849212646,11.25,17.192241849212646,11.25,17.192241849212646C10.283501,17.192241849212646,9.5,16.411351849212647,9.5,15.448101849212646C9.5,15.448101849212646,9.5,15.448101849212646,9.5,15.448101849212646ZM9.5,25.912961849212646C9.5,24.949661849212646,10.283501,24.168761849212647,11.25,24.168761849212647C11.25,24.168761849212647,42.75,24.168761849212647,42.75,24.168761849212647C43.7165,24.168761849212647,44.5,24.949661849212646,44.5,25.912961849212646C44.5,26.876161849212647,43.7165,27.657061849212646,42.75,27.657061849212646C42.75,27.657061849212646,11.25,27.657061849212646,11.25,27.657061849212646C10.283501,27.657061849212646,9.5,26.876161849212647,9.5,25.912961849212646C9.5,25.912961849212646,9.5,25.912961849212646,9.5,25.912961849212646ZM9.5,36.377761849212646C9.5,35.41446184921264,10.283501,34.63366184921264,11.25,34.63366184921264C11.25,34.63366184921264,42.75,34.63366184921264,42.75,34.63366184921264C43.7165,34.63366184921264,44.5,35.41446184921264,44.5,36.377761849212646C44.5,37.34106184921265,43.7165,38.121961849212646,42.75,38.121961849212646C42.75,38.121961849212646,11.25,38.121961849212646,11.25,38.121961849212646C10.283501,38.121961849212646,9.5,37.34106184921265,9.5,36.377761849212646C9.5,36.377761849212646,9.5,36.377761849212646,9.5,36.377761849212646Z" fill-rule="evenodd" fill="#FFFFFF" fill-opacity="1"/></g></g></g></svg>